<svg width="26" height="26" viewBox="0 0 26 26" fill="none" xmlns="http://www.w3.org/2000/svg">
    <g clip-path="url(#clip0_6_4459)">
        <path fill-rule="evenodd" clip-rule="evenodd"
              d="M6.85575 6.8558C3.65198 10.0596 3.65198 15.2542 6.85575 18.4579C10.0595 21.6617 15.2541 21.6617 18.4579 18.4579C21.6616 15.2542 21.6616 10.0596 18.4579 6.8558C15.2541 3.65203 10.0595 3.65203 6.85575 6.8558ZM15.2937 14.239C15.4335 14.3788 15.5121 14.5685 15.5121 14.7663C15.5121 14.9641 15.4335 15.1538 15.2937 15.2937C15.1538 15.4336 14.9641 15.5121 14.7663 15.5122C14.5685 15.5122 14.3788 15.4336 14.2389 15.2937L12.6568 13.7116L11.0747 15.2937C10.9348 15.4336 10.7451 15.5121 10.5473 15.5121C10.3495 15.5121 10.1598 15.4336 10.02 15.2937C9.8801 15.1538 9.80152 14.9641 9.80152 14.7663C9.80152 14.5685 9.8801 14.3788 10.02 14.239L11.6021 12.6569L10.02 11.0748C9.8801 10.9349 9.80152 10.7452 9.80152 10.5474C9.80152 10.3496 9.8801 10.1599 10.02 10.02C10.1598 9.88015 10.3495 9.80157 10.5473 9.80157C10.7451 9.80157 10.9348 9.88015 11.0747 10.02L12.6568 11.6021L14.2389 10.02C14.3788 9.88015 14.5685 9.80157 14.7663 9.80157C14.9641 9.80157 15.1538 9.88015 15.2937 10.02C15.4335 10.1599 15.5121 10.3496 15.5121 10.5474C15.5121 10.7452 15.4335 10.9349 15.2937 11.0748L13.7115 12.6569L15.2937 14.239Z"
              fill="#F08705"/>
    </g>
    <defs>
        <clipPath id="clip0_6_4459">
            <rect width="17.8995" height="17.8995" fill="white" transform="translate(0 12.6569) rotate(-45)"/>
        </clipPath>
    </defs>
</svg>
