<svg width="34" height="34" viewBox="0 0 34 34" fill="none" xmlns="http://www.w3.org/2000/svg">
    <rect x="0.5" y="0.5" width="33" height="33" rx="4.5" stroke="#EEEEEE"/>
    <g clip-path="url(#clip0_65_32)">
        <path d="M16.9875 13C17.1197 13 17.2465 13.0525 17.3399 13.146C17.4334 13.2395 17.4859 13.3662 17.4859 13.4984V16.4891H20.4766C20.6088 16.4891 20.7355 16.5416 20.829 16.6351C20.9225 16.7285 20.975 16.8553 20.975 16.9875C20.975 17.1197 20.9225 17.2465 20.829 17.3399C20.7355 17.4334 20.6088 17.4859 20.4766 17.4859H17.4859V20.4766C17.4859 20.6088 17.4334 20.7355 17.3399 20.829C17.2465 20.9225 17.1197 20.975 16.9875 20.975C16.8553 20.975 16.7285 20.9225 16.6351 20.829C16.5416 20.7355 16.4891 20.6088 16.4891 20.4766V17.4859H13.4984C13.3662 17.4859 13.2395 17.4334 13.146 17.3399C13.0525 17.2465 13 17.1197 13 16.9875C13 16.8553 13.0525 16.7285 13.146 16.6351C13.2395 16.5416 13.3662 16.4891 13.4984 16.4891H16.4891V13.4984C16.4891 13.3662 16.5416 13.2395 16.6351 13.146C16.7285 13.0525 16.8553 13 16.9875 13V13Z"
              fill="#EEEEEE"/>
    </g>
    <defs>
        <clipPath id="clip0_65_32">
            <rect width="7.975" height="7.975" fill="white" transform="translate(13 13)"/>
        </clipPath>
    </defs>
</svg>
