<svg width="28" height="28" viewBox="0 0 28 28" fill="none" xmlns="http://www.w3.org/2000/svg">
    <path d="M9.62494 12.2491C9.62494 12.0171 9.71713 11.7945 9.88122 11.6304C10.0453 11.4663 10.2679 11.3741 10.4999 11.3741H17.4999C17.732 11.3741 17.9546 11.4663 18.1187 11.6304C18.2828 11.7945 18.3749 12.0171 18.3749 12.2491C18.3749 12.4812 18.2828 12.7038 18.1187 12.8678C17.9546 13.0319 17.732 13.1241 17.4999 13.1241H10.4999C10.2679 13.1241 10.0453 13.0319 9.88122 12.8678C9.71713 12.7038 9.62494 12.4812 9.62494 12.2491ZM9.62494 15.7483C9.62494 15.5162 9.71713 15.2936 9.88122 15.1295C10.0453 14.9654 10.2679 14.8733 10.4999 14.8733H15.7499C15.982 14.8733 16.2046 14.9654 16.3687 15.1295C16.5328 15.2936 16.6249 15.5162 16.6249 15.7483C16.6249 15.9803 16.5328 16.2029 16.3687 16.367C16.2046 16.5311 15.982 16.6233 15.7499 16.6233H10.4999C10.2679 16.6233 10.0453 16.5311 9.88122 16.367C9.71713 16.2029 9.62494 15.9803 9.62494 15.7483ZM13.9999 2.625C7.71744 2.625 2.62494 7.7175 2.62494 13.9983C2.62494 15.8139 3.05107 17.5315 3.80882 19.0558L2.32482 23.5069C1.87769 24.8474 3.12282 26.138 4.47819 25.7381L9.25044 24.3355C10.74 25.0205 12.3604 25.3742 13.9999 25.3724C20.2824 25.3724 25.3749 20.2799 25.3749 13.9983C25.3749 7.7175 20.2824 2.625 13.9999 2.625ZM4.37494 13.9983C4.37494 8.6835 8.68432 4.375 13.9999 4.375C19.3164 4.375 23.6249 8.6835 23.6249 13.9983C23.6249 19.3139 19.3164 23.6224 13.9999 23.6224C12.4591 23.6224 11.0048 23.261 9.71507 22.6188L9.40794 22.4656L3.98469 24.0599L5.70582 18.8983L5.52557 18.5658C4.76773 17.1628 4.37222 15.5928 4.37494 13.9983V13.9983Z"
          fill="black"/>
</svg>
